<?xml version="1.0" encoding="UTF-8" standalone="no"?>
<!DOCTYPE svg PUBLIC "-//W3C//DTD SVG 1.1//EN"
 "http://www.w3.org/Graphics/SVG/1.1/DTD/svg11.dtd">
<!-- Generated by graphviz version 2.47.0 (20210316.0004)
 -->
<!-- Title: dependencies Pages: 1 -->
<svg width="852pt" height="284pt"
 viewBox="0.00 0.00 852.00 284.00" xmlns="http://www.w3.org/2000/svg" xmlns:xlink="http://www.w3.org/1999/xlink">
<g id="graph0" class="graph" transform="scale(1 1) rotate(0) translate(4 280)">
<title>dependencies</title>
<polygon fill="white" stroke="transparent" points="-4,4 -4,-280 848,-280 848,4 -4,4"/>
<text text-anchor="start" x="401.01" y="-42.4" font-family="Times-12" font-weight="bold" font-size="14.00">Legend</text>
<polygon fill="#ffffb3" stroke="transparent" points="188,-10 188,-30 208,-30 208,-10 188,-10"/>
<text text-anchor="start" x="211.63" y="-15.4" font-family="Times-12" font-size="14.00"> &#160;Declarations</text>
<polygon fill="#8dd3c7" stroke="transparent" points="301,-10 301,-30 321,-30 321,-10 301,-10"/>
<text text-anchor="start" x="324.73" y="-15.4" font-family="Times-12" font-size="14.00"> &#160;Module</text>
<polygon fill="#80b1d3" stroke="transparent" points="387,-10 387,-30 407,-30 407,-10 387,-10"/>
<text text-anchor="start" x="410.78" y="-15.4" font-family="Times-12" font-size="14.00"> &#160;Bootstrap</text>
<polygon fill="#fdb462" stroke="transparent" points="484,-10 484,-30 504,-30 504,-10 484,-10"/>
<text text-anchor="start" x="507.67" y="-15.4" font-family="Times-12" font-size="14.00"> &#160;Providers</text>
<polygon fill="#fb8072" stroke="transparent" points="580,-10 580,-30 600,-30 600,-10 580,-10"/>
<text text-anchor="start" x="603.73" y="-15.4" font-family="Times-12" font-size="14.00"> &#160;Exports</text>
<g id="clust1" class="cluster">
<title>cluster_UsersModule</title>
<polygon fill="none" stroke="black" stroke-dasharray="1,5" points="8,-70 8,-268 836,-268 836,-70 8,-70"/>
</g>
<g id="clust6" class="cluster">
<title>cluster_UsersModule_providers</title>
<polygon fill="none" stroke="black" points="16,-78 16,-130 828,-130 828,-78 16,-78"/>
</g>
<g id="clust4" class="cluster">
<title>cluster_UsersModule_exports</title>
<polygon fill="none" stroke="black" points="302,-208 302,-260 406,-260 406,-208 302,-208"/>
</g>
<!-- UserService  -->
<g id="node1" class="node">
<title>UserService </title>
<polygon fill="#fb8072" stroke="black" points="397.9,-252 310.1,-252 310.1,-216 397.9,-216 397.9,-252"/>
<text text-anchor="middle" x="354" y="-229.8" font-family="Times,serif" font-size="14.00">UserService </text>
</g>
<!-- UsersModule -->
<g id="node2" class="node">
<title>UsersModule</title>
<polygon fill="#8dd3c7" stroke="black" points="399.92,-187 396.92,-191 375.92,-191 372.92,-187 308.08,-187 308.08,-151 399.92,-151 399.92,-187"/>
<text text-anchor="middle" x="354" y="-164.8" font-family="Times,serif" font-size="14.00">UsersModule</text>
</g>
<!-- UsersModule&#45;&gt;UserService  -->
<g id="edge1" class="edge">
<title>UsersModule&#45;&gt;UserService </title>
<path fill="none" stroke="black" stroke-dasharray="5,2" d="M354,-187.11C354,-187.11 354,-205.99 354,-205.99"/>
<polygon fill="black" stroke="black" points="350.5,-205.99 354,-215.99 357.5,-205.99 350.5,-205.99"/>
</g>
<!-- FindUserByEmailProvider -->
<g id="node3" class="node">
<title>FindUserByEmailProvider</title>
<ellipse fill="#fdb462" stroke="black" cx="705" cy="-104" rx="114.62" ry="18"/>
<text text-anchor="middle" x="705" y="-99.8" font-family="Times,serif" font-size="14.00">FindUserByEmailProvider</text>
</g>
<!-- FindUserByEmailProvider&#45;&gt;UsersModule -->
<g id="edge2" class="edge">
<title>FindUserByEmailProvider&#45;&gt;UsersModule</title>
<path fill="none" stroke="black" d="M705,-122.11C705,-141.34 705,-169 705,-169 705,-169 409.89,-169 409.89,-169"/>
<polygon fill="black" stroke="black" points="409.89,-165.5 399.89,-169 409.89,-172.5 409.89,-165.5"/>
</g>
<!-- UserCreateManyProvider -->
<g id="node4" class="node">
<title>UserCreateManyProvider</title>
<ellipse fill="#fdb462" stroke="black" cx="462" cy="-104" rx="110.49" ry="18"/>
<text text-anchor="middle" x="462" y="-99.8" font-family="Times,serif" font-size="14.00">UserCreateManyProvider</text>
</g>
<!-- UserCreateManyProvider&#45;&gt;UsersModule -->
<g id="edge3" class="edge">
<title>UserCreateManyProvider&#45;&gt;UsersModule</title>
<path fill="none" stroke="black" d="M375.73,-115.32C375.73,-115.32 375.73,-140.94 375.73,-140.94"/>
<polygon fill="black" stroke="black" points="372.23,-140.94 375.73,-150.94 379.23,-140.94 372.23,-140.94"/>
</g>
<!-- UserCreateProvider -->
<g id="node5" class="node">
<title>UserCreateProvider</title>
<ellipse fill="#fdb462" stroke="black" cx="246" cy="-104" rx="87.94" ry="18"/>
<text text-anchor="middle" x="246" y="-99.8" font-family="Times,serif" font-size="14.00">UserCreateProvider</text>
</g>
<!-- UserCreateProvider&#45;&gt;UsersModule -->
<g id="edge4" class="edge">
<title>UserCreateProvider&#45;&gt;UsersModule</title>
<path fill="none" stroke="black" d="M321,-113.59C321,-113.59 321,-140.75 321,-140.75"/>
<polygon fill="black" stroke="black" points="317.5,-140.75 321,-150.75 324.5,-140.75 317.5,-140.75"/>
</g>
<!-- UserService -->
<g id="node6" class="node">
<title>UserService</title>
<ellipse fill="#fdb462" stroke="black" cx="82" cy="-104" rx="58.44" ry="18"/>
<text text-anchor="middle" x="82" y="-99.8" font-family="Times,serif" font-size="14.00">UserService</text>
</g>
<!-- UserService&#45;&gt;UsersModule -->
<g id="edge5" class="edge">
<title>UserService&#45;&gt;UsersModule</title>
<path fill="none" stroke="black" d="M82,-122.11C82,-141.34 82,-169 82,-169 82,-169 298.17,-169 298.17,-169"/>
<polygon fill="black" stroke="black" points="298.17,-172.5 308.17,-169 298.17,-165.5 298.17,-172.5"/>
</g>
</g>
</svg>
