<?xml version="1.0" encoding="UTF-8" standalone="no"?>
<!DOCTYPE svg PUBLIC "-//W3C//DTD SVG 1.1//EN"
 "http://www.w3.org/Graphics/SVG/1.1/DTD/svg11.dtd">
<!-- Generated by graphviz version 2.47.0 (20210316.0004)
 -->
<!-- Title: dependencies Pages: 1 -->
<svg width="891pt" height="211pt"
 viewBox="0.00 0.00 891.00 211.00" xmlns="http://www.w3.org/2000/svg" xmlns:xlink="http://www.w3.org/1999/xlink">
<g id="graph0" class="graph" transform="scale(1 1) rotate(0) translate(4 207)">
<title>dependencies</title>
<polygon fill="white" stroke="transparent" points="-4,4 -4,-207 887,-207 887,4 -4,4"/>
<text text-anchor="start" x="420.51" y="-42.4" font-family="Times-12" font-weight="bold" font-size="14.00">Legend</text>
<polygon fill="#ffffb3" stroke="transparent" points="207.5,-10 207.5,-30 227.5,-30 227.5,-10 207.5,-10"/>
<text text-anchor="start" x="231.13" y="-15.4" font-family="Times-12" font-size="14.00"> &#160;Declarations</text>
<polygon fill="#8dd3c7" stroke="transparent" points="320.5,-10 320.5,-30 340.5,-30 340.5,-10 320.5,-10"/>
<text text-anchor="start" x="344.23" y="-15.4" font-family="Times-12" font-size="14.00"> &#160;Module</text>
<polygon fill="#80b1d3" stroke="transparent" points="406.5,-10 406.5,-30 426.5,-30 426.5,-10 406.5,-10"/>
<text text-anchor="start" x="430.28" y="-15.4" font-family="Times-12" font-size="14.00"> &#160;Bootstrap</text>
<polygon fill="#fdb462" stroke="transparent" points="503.5,-10 503.5,-30 523.5,-30 523.5,-10 503.5,-10"/>
<text text-anchor="start" x="527.17" y="-15.4" font-family="Times-12" font-size="14.00"> &#160;Providers</text>
<polygon fill="#fb8072" stroke="transparent" points="599.5,-10 599.5,-30 619.5,-30 619.5,-10 599.5,-10"/>
<text text-anchor="start" x="623.23" y="-15.4" font-family="Times-12" font-size="14.00"> &#160;Exports</text>
<g id="clust1" class="cluster">
<title>cluster_AppModule</title>
<polygon fill="none" stroke="black" stroke-dasharray="1,5" points="8,-70 8,-195 875,-195 875,-70 8,-70"/>
</g>
<g id="clust6" class="cluster">
<title>cluster_AppModule_providers</title>
<polygon fill="none" stroke="black" points="737,-78 737,-130 867,-130 867,-78 737,-78"/>
</g>
<g id="clust3" class="cluster">
<title>cluster_AppModule_imports</title>
<polygon fill="none" stroke="black" points="16,-78 16,-130 729,-130 729,-78 16,-78"/>
</g>
<!-- AuthModule -->
<g id="node1" class="node">
<title>AuthModule</title>
<polygon fill="#8dd3c7" stroke="black" points="720.55,-122 717.55,-126 696.55,-126 693.55,-122 633.45,-122 633.45,-86 720.55,-86 720.55,-122"/>
<text text-anchor="middle" x="677" y="-99.8" font-family="Times,serif" font-size="14.00">AuthModule</text>
</g>
<!-- AppModule -->
<g id="node7" class="node">
<title>AppModule</title>
<polygon fill="#8dd3c7" stroke="black" points="446.66,-187 443.66,-191 422.66,-191 419.66,-187 363.34,-187 363.34,-151 446.66,-151 446.66,-187"/>
<text text-anchor="middle" x="405" y="-164.8" font-family="Times,serif" font-size="14.00">AppModule</text>
</g>
<!-- AuthModule&#45;&gt;AppModule -->
<g id="edge1" class="edge">
<title>AuthModule&#45;&gt;AppModule</title>
<path fill="none" stroke="black" d="M677,-122.11C677,-141.34 677,-169 677,-169 677,-169 456.9,-169 456.9,-169"/>
<polygon fill="black" stroke="black" points="456.9,-165.5 446.9,-169 456.9,-172.5 456.9,-165.5"/>
</g>
<!-- MetaOptionsModule -->
<g id="node2" class="node">
<title>MetaOptionsModule</title>
<polygon fill="#8dd3c7" stroke="black" points="615.15,-122 612.15,-126 591.15,-126 588.15,-122 482.85,-122 482.85,-86 615.15,-86 615.15,-122"/>
<text text-anchor="middle" x="549" y="-99.8" font-family="Times,serif" font-size="14.00">MetaOptionsModule</text>
</g>
<!-- MetaOptionsModule&#45;&gt;AppModule -->
<g id="edge2" class="edge">
<title>MetaOptionsModule&#45;&gt;AppModule</title>
<path fill="none" stroke="black" d="M549,-122.03C549,-138.4 549,-160 549,-160 549,-160 457.04,-160 457.04,-160"/>
<polygon fill="black" stroke="black" points="457.04,-156.5 447.04,-160 457.04,-163.5 457.04,-156.5"/>
</g>
<!-- PaginationModule -->
<g id="node3" class="node">
<title>PaginationModule</title>
<polygon fill="#8dd3c7" stroke="black" points="464.93,-122 461.93,-126 440.93,-126 437.93,-122 345.07,-122 345.07,-86 464.93,-86 464.93,-122"/>
<text text-anchor="middle" x="405" y="-99.8" font-family="Times,serif" font-size="14.00">PaginationModule</text>
</g>
<!-- PaginationModule&#45;&gt;AppModule -->
<g id="edge3" class="edge">
<title>PaginationModule&#45;&gt;AppModule</title>
<path fill="none" stroke="black" d="M405,-122.11C405,-122.11 405,-140.99 405,-140.99"/>
<polygon fill="black" stroke="black" points="401.5,-140.99 405,-150.99 408.5,-140.99 401.5,-140.99"/>
</g>
<!-- PostsModule -->
<g id="node4" class="node">
<title>PostsModule</title>
<polygon fill="#8dd3c7" stroke="black" points="327.61,-122 324.61,-126 303.61,-126 300.61,-122 238.39,-122 238.39,-86 327.61,-86 327.61,-122"/>
<text text-anchor="middle" x="283" y="-99.8" font-family="Times,serif" font-size="14.00">PostsModule</text>
</g>
<!-- PostsModule&#45;&gt;AppModule -->
<g id="edge4" class="edge">
<title>PostsModule&#45;&gt;AppModule</title>
<path fill="none" stroke="black" d="M283,-122.03C283,-138.4 283,-160 283,-160 283,-160 353.01,-160 353.01,-160"/>
<polygon fill="black" stroke="black" points="353.01,-163.5 363.01,-160 353.01,-156.5 353.01,-163.5"/>
</g>
<!-- TagsModule -->
<g id="node5" class="node">
<title>TagsModule</title>
<polygon fill="#8dd3c7" stroke="black" points="220.26,-122 217.26,-126 196.26,-126 193.26,-122 133.74,-122 133.74,-86 220.26,-86 220.26,-122"/>
<text text-anchor="middle" x="177" y="-99.8" font-family="Times,serif" font-size="14.00">TagsModule</text>
</g>
<!-- TagsModule&#45;&gt;AppModule -->
<g id="edge5" class="edge">
<title>TagsModule&#45;&gt;AppModule</title>
<path fill="none" stroke="black" d="M177,-122.11C177,-141.34 177,-169 177,-169 177,-169 353.18,-169 353.18,-169"/>
<polygon fill="black" stroke="black" points="353.18,-172.5 363.18,-169 353.18,-165.5 353.18,-172.5"/>
</g>
<!-- UsersModule -->
<g id="node6" class="node">
<title>UsersModule</title>
<polygon fill="#8dd3c7" stroke="black" points="115.92,-122 112.92,-126 91.92,-126 88.92,-122 24.08,-122 24.08,-86 115.92,-86 115.92,-122"/>
<text text-anchor="middle" x="70" y="-99.8" font-family="Times,serif" font-size="14.00">UsersModule</text>
</g>
<!-- UsersModule&#45;&gt;AppModule -->
<g id="edge6" class="edge">
<title>UsersModule&#45;&gt;AppModule</title>
<path fill="none" stroke="black" d="M70,-122.29C70,-144.21 70,-178 70,-178 70,-178 353.25,-178 353.25,-178"/>
<polygon fill="black" stroke="black" points="353.25,-181.5 363.25,-178 353.25,-174.5 353.25,-181.5"/>
</g>
<!-- AppService -->
<g id="node8" class="node">
<title>AppService</title>
<ellipse fill="#fdb462" stroke="black" cx="802" cy="-104" rx="56.74" ry="18"/>
<text text-anchor="middle" x="802" y="-99.8" font-family="Times,serif" font-size="14.00">AppService</text>
</g>
<!-- AppService&#45;&gt;AppModule -->
<g id="edge7" class="edge">
<title>AppService&#45;&gt;AppModule</title>
<path fill="none" stroke="black" d="M802,-122.29C802,-144.21 802,-178 802,-178 802,-178 456.74,-178 456.74,-178"/>
<polygon fill="black" stroke="black" points="456.74,-174.5 446.74,-178 456.74,-181.5 456.74,-174.5"/>
</g>
</g>
</svg>
